<mxfile host="65bd71144e">
    <diagram id="3r2btJshjQfWCY1h0-so" name="Page-1">
        <mxGraphModel dx="1153" dy="790" grid="1" gridSize="10" guides="1" tooltips="1" connect="1" arrows="1" fold="1" page="1" pageScale="1" pageWidth="827" pageHeight="1169" math="0" shadow="0">
            <root>
                <mxCell id="0"/>
                <mxCell id="1" parent="0"/>
                <mxCell id="8" value="compte" style="swimlane;fontStyle=0;childLayout=stackLayout;horizontal=1;startSize=26;fillColor=#60a917;horizontalStack=0;resizeParent=1;resizeParentMax=0;resizeLast=0;collapsible=1;marginBottom=0;rounded=1;fontColor=#ffffff;strokeColor=#2D7600;" vertex="1" parent="1">
                    <mxGeometry x="60" y="507" width="140" height="182" as="geometry"/>
                </mxCell>
                <mxCell id="9" value="pk_id_compte" style="text;strokeColor=#C73500;fillColor=#fa6800;align=left;verticalAlign=top;spacingLeft=4;spacingRight=4;overflow=hidden;rotatable=0;points=[[0,0.5],[1,0.5]];portConstraint=eastwest;fontColor=#000000;" vertex="1" parent="8">
                    <mxGeometry y="26" width="140" height="26" as="geometry"/>
                </mxCell>
                <mxCell id="10" value="img_compte" style="text;strokeColor=#C73500;fillColor=#fa6800;align=left;verticalAlign=top;spacingLeft=4;spacingRight=4;overflow=hidden;rotatable=0;points=[[0,0.5],[1,0.5]];portConstraint=eastwest;fontColor=#000000;" vertex="1" parent="8">
                    <mxGeometry y="52" width="140" height="26" as="geometry"/>
                </mxCell>
                <mxCell id="11" value="pseudo_compte" style="text;strokeColor=#C73500;fillColor=#fa6800;align=left;verticalAlign=top;spacingLeft=4;spacingRight=4;overflow=hidden;rotatable=0;points=[[0,0.5],[1,0.5]];portConstraint=eastwest;fontColor=#000000;" vertex="1" parent="8">
                    <mxGeometry y="78" width="140" height="26" as="geometry"/>
                </mxCell>
                <mxCell id="14" value="email_compte" style="text;strokeColor=#C73500;fillColor=#fa6800;align=left;verticalAlign=top;spacingLeft=4;spacingRight=4;overflow=hidden;rotatable=0;points=[[0,0.5],[1,0.5]];portConstraint=eastwest;fontColor=#000000;" vertex="1" parent="8">
                    <mxGeometry y="104" width="140" height="26" as="geometry"/>
                </mxCell>
                <mxCell id="15" value="mdp_compte" style="text;strokeColor=#C73500;fillColor=#fa6800;align=left;verticalAlign=top;spacingLeft=4;spacingRight=4;overflow=hidden;rotatable=0;points=[[0,0.5],[1,0.5]];portConstraint=eastwest;fontColor=#000000;" vertex="1" parent="8">
                    <mxGeometry y="130" width="140" height="26" as="geometry"/>
                </mxCell>
                <mxCell id="73" value="fk_id_contact" style="text;strokeColor=#C73500;fillColor=#fa6800;align=left;verticalAlign=top;spacingLeft=4;spacingRight=4;overflow=hidden;rotatable=0;points=[[0,0.5],[1,0.5]];portConstraint=eastwest;fontColor=#000000;" vertex="1" parent="8">
                    <mxGeometry y="156" width="140" height="26" as="geometry"/>
                </mxCell>
                <mxCell id="17" value="message" style="swimlane;fontStyle=0;childLayout=stackLayout;horizontal=1;startSize=26;fillColor=#60a917;horizontalStack=0;resizeParent=1;resizeParentMax=0;resizeLast=0;collapsible=1;marginBottom=0;rounded=1;fontColor=#ffffff;strokeColor=#2D7600;" vertex="1" parent="1">
                    <mxGeometry x="600" y="330" width="140" height="156" as="geometry"/>
                </mxCell>
                <mxCell id="18" value="pk_id_message" style="text;strokeColor=#C73500;fillColor=#fa6800;align=left;verticalAlign=top;spacingLeft=4;spacingRight=4;overflow=hidden;rotatable=0;points=[[0,0.5],[1,0.5]];portConstraint=eastwest;fontColor=#000000;" vertex="1" parent="17">
                    <mxGeometry y="26" width="140" height="26" as="geometry"/>
                </mxCell>
                <mxCell id="19" value="content_message" style="text;strokeColor=#C73500;fillColor=#fa6800;align=left;verticalAlign=top;spacingLeft=4;spacingRight=4;overflow=hidden;rotatable=0;points=[[0,0.5],[1,0.5]];portConstraint=eastwest;fontColor=#000000;" vertex="1" parent="17">
                    <mxGeometry y="52" width="140" height="26" as="geometry"/>
                </mxCell>
                <mxCell id="54" value="fk_id_type_message" style="text;strokeColor=#C73500;fillColor=#fa6800;align=left;verticalAlign=top;spacingLeft=4;spacingRight=4;overflow=hidden;rotatable=0;points=[[0,0.5],[1,0.5]];portConstraint=eastwest;fontColor=#000000;" vertex="1" parent="17">
                    <mxGeometry y="78" width="140" height="26" as="geometry"/>
                </mxCell>
                <mxCell id="20" value="fk_id_compte" style="text;strokeColor=#C73500;fillColor=#fa6800;align=left;verticalAlign=top;spacingLeft=4;spacingRight=4;overflow=hidden;rotatable=0;points=[[0,0.5],[1,0.5]];portConstraint=eastwest;fontColor=#000000;" vertex="1" parent="17">
                    <mxGeometry y="104" width="140" height="26" as="geometry"/>
                </mxCell>
                <mxCell id="21" value="fk_id_salon" style="text;strokeColor=#C73500;fillColor=#fa6800;align=left;verticalAlign=top;spacingLeft=4;spacingRight=4;overflow=hidden;rotatable=0;points=[[0,0.5],[1,0.5]];portConstraint=eastwest;fontColor=#000000;" vertex="1" parent="17">
                    <mxGeometry y="130" width="140" height="26" as="geometry"/>
                </mxCell>
                <mxCell id="23" value="serveur" style="swimlane;fontStyle=0;childLayout=stackLayout;horizontal=1;startSize=26;fillColor=#60a917;horizontalStack=0;resizeParent=1;resizeParentMax=0;resizeLast=0;collapsible=1;marginBottom=0;rounded=1;fontColor=#ffffff;strokeColor=#2D7600;" vertex="1" parent="1">
                    <mxGeometry x="340" y="559" width="140" height="156" as="geometry"/>
                </mxCell>
                <mxCell id="24" value="pk_id_serveur" style="text;strokeColor=#C73500;fillColor=#fa6800;align=left;verticalAlign=top;spacingLeft=4;spacingRight=4;overflow=hidden;rotatable=0;points=[[0,0.5],[1,0.5]];portConstraint=eastwest;fontColor=#000000;" vertex="1" parent="23">
                    <mxGeometry y="26" width="140" height="26" as="geometry"/>
                </mxCell>
                <mxCell id="25" value="nom_serveur" style="text;strokeColor=#C73500;fillColor=#fa6800;align=left;verticalAlign=top;spacingLeft=4;spacingRight=4;overflow=hidden;rotatable=0;points=[[0,0.5],[1,0.5]];portConstraint=eastwest;fontColor=#000000;" vertex="1" parent="23">
                    <mxGeometry y="52" width="140" height="26" as="geometry"/>
                </mxCell>
                <mxCell id="26" value="fk_id_type_serveur" style="text;strokeColor=#C73500;fillColor=#fa6800;align=left;verticalAlign=top;spacingLeft=4;spacingRight=4;overflow=hidden;rotatable=0;points=[[0,0.5],[1,0.5]];portConstraint=eastwest;fontColor=#000000;" vertex="1" parent="23">
                    <mxGeometry y="78" width="140" height="26" as="geometry"/>
                </mxCell>
                <mxCell id="91" value="fk_id_salon" style="text;strokeColor=#C73500;fillColor=#fa6800;align=left;verticalAlign=top;spacingLeft=4;spacingRight=4;overflow=hidden;rotatable=0;points=[[0,0.5],[1,0.5]];portConstraint=eastwest;fontColor=#000000;" vertex="1" parent="23">
                    <mxGeometry y="104" width="140" height="26" as="geometry"/>
                </mxCell>
                <mxCell id="90" value="fk_id_autorisation" style="text;strokeColor=#C73500;fillColor=#fa6800;align=left;verticalAlign=top;spacingLeft=4;spacingRight=4;overflow=hidden;rotatable=0;points=[[0,0.5],[1,0.5]];portConstraint=eastwest;fontColor=#000000;" vertex="1" parent="23">
                    <mxGeometry y="130" width="140" height="26" as="geometry"/>
                </mxCell>
                <mxCell id="28" value="salon" style="swimlane;fontStyle=0;childLayout=stackLayout;horizontal=1;startSize=26;fillColor=#60a917;horizontalStack=0;resizeParent=1;resizeParentMax=0;resizeLast=0;collapsible=1;marginBottom=0;rounded=1;fontColor=#ffffff;strokeColor=#2D7600;" vertex="1" parent="1">
                    <mxGeometry x="600" y="743" width="140" height="130" as="geometry"/>
                </mxCell>
                <mxCell id="29" value="pk_id_salon" style="text;strokeColor=#C73500;fillColor=#fa6800;align=left;verticalAlign=top;spacingLeft=4;spacingRight=4;overflow=hidden;rotatable=0;points=[[0,0.5],[1,0.5]];portConstraint=eastwest;fontColor=#000000;" vertex="1" parent="28">
                    <mxGeometry y="26" width="140" height="26" as="geometry"/>
                </mxCell>
                <mxCell id="30" value="nom_salon" style="text;strokeColor=#C73500;fillColor=#fa6800;align=left;verticalAlign=top;spacingLeft=4;spacingRight=4;overflow=hidden;rotatable=0;points=[[0,0.5],[1,0.5]];portConstraint=eastwest;fontColor=#000000;" vertex="1" parent="28">
                    <mxGeometry y="52" width="140" height="26" as="geometry"/>
                </mxCell>
                <mxCell id="32" value="img_salon" style="text;strokeColor=#C73500;fillColor=#fa6800;align=left;verticalAlign=top;spacingLeft=4;spacingRight=4;overflow=hidden;rotatable=0;points=[[0,0.5],[1,0.5]];portConstraint=eastwest;fontColor=#000000;" vertex="1" parent="28">
                    <mxGeometry y="78" width="140" height="26" as="geometry"/>
                </mxCell>
                <mxCell id="31" value="fk_id_type_salon" style="text;strokeColor=#C73500;fillColor=#fa6800;align=left;verticalAlign=top;spacingLeft=4;spacingRight=4;overflow=hidden;rotatable=0;points=[[0,0.5],[1,0.5]];portConstraint=eastwest;fontColor=#000000;" vertex="1" parent="28">
                    <mxGeometry y="104" width="140" height="26" as="geometry"/>
                </mxCell>
                <mxCell id="35" value="type_salon" style="swimlane;fontStyle=0;childLayout=stackLayout;horizontal=1;startSize=26;fillColor=#60a917;horizontalStack=0;resizeParent=1;resizeParentMax=0;resizeLast=0;collapsible=1;marginBottom=0;rounded=1;fontColor=#ffffff;strokeColor=#2D7600;" vertex="1" parent="1">
                    <mxGeometry x="600" y="960" width="140" height="78" as="geometry"/>
                </mxCell>
                <mxCell id="36" value="pk_id_type_salon" style="text;strokeColor=#C73500;fillColor=#fa6800;align=left;verticalAlign=top;spacingLeft=4;spacingRight=4;overflow=hidden;rotatable=0;points=[[0,0.5],[1,0.5]];portConstraint=eastwest;fontColor=#000000;" vertex="1" parent="35">
                    <mxGeometry y="26" width="140" height="26" as="geometry"/>
                </mxCell>
                <mxCell id="39" value="nom_type_salon" style="text;strokeColor=#C73500;fillColor=#fa6800;align=left;verticalAlign=top;spacingLeft=4;spacingRight=4;overflow=hidden;rotatable=0;points=[[0,0.5],[1,0.5]];portConstraint=eastwest;fontColor=#000000;" vertex="1" parent="35">
                    <mxGeometry y="52" width="140" height="26" as="geometry"/>
                </mxCell>
                <mxCell id="81" style="edgeStyle=none;html=1;entryX=1;entryY=0.5;entryDx=0;entryDy=0;fontColor=#000000;" edge="1" parent="1" source="48" target="26">
                    <mxGeometry relative="1" as="geometry">
                        <Array as="points">
                            <mxPoint x="540" y="598"/>
                            <mxPoint x="540" y="650"/>
                        </Array>
                    </mxGeometry>
                </mxCell>
                <mxCell id="48" value="type_serveur" style="swimlane;fontStyle=0;childLayout=stackLayout;horizontal=1;startSize=26;fillColor=#60a917;horizontalStack=0;resizeParent=1;resizeParentMax=0;resizeLast=0;collapsible=1;marginBottom=0;rounded=1;fontColor=#ffffff;strokeColor=#2D7600;" vertex="1" parent="1">
                    <mxGeometry x="600" y="559" width="140" height="78" as="geometry"/>
                </mxCell>
                <mxCell id="49" value="pk_id_type_serveur" style="text;strokeColor=#C73500;fillColor=#fa6800;align=left;verticalAlign=top;spacingLeft=4;spacingRight=4;overflow=hidden;rotatable=0;points=[[0,0.5],[1,0.5]];portConstraint=eastwest;fontColor=#000000;" vertex="1" parent="48">
                    <mxGeometry y="26" width="140" height="26" as="geometry"/>
                </mxCell>
                <mxCell id="50" value="nom_type_serveur" style="text;strokeColor=#C73500;fillColor=#fa6800;align=left;verticalAlign=top;spacingLeft=4;spacingRight=4;overflow=hidden;rotatable=0;points=[[0,0.5],[1,0.5]];portConstraint=eastwest;fontColor=#000000;" vertex="1" parent="48">
                    <mxGeometry y="52" width="140" height="26" as="geometry"/>
                </mxCell>
                <mxCell id="51" value="type_message" style="swimlane;fontStyle=0;childLayout=stackLayout;horizontal=1;startSize=26;fillColor=#60a917;horizontalStack=0;resizeParent=1;resizeParentMax=0;resizeLast=0;collapsible=1;marginBottom=0;rounded=1;fontColor=#ffffff;strokeColor=#2D7600;" vertex="1" parent="1">
                    <mxGeometry x="340" y="330" width="140" height="78" as="geometry"/>
                </mxCell>
                <mxCell id="52" value="pk_id_type_message" style="text;strokeColor=#C73500;fillColor=#fa6800;align=left;verticalAlign=top;spacingLeft=4;spacingRight=4;overflow=hidden;rotatable=0;points=[[0,0.5],[1,0.5]];portConstraint=eastwest;fontColor=#000000;" vertex="1" parent="51">
                    <mxGeometry y="26" width="140" height="26" as="geometry"/>
                </mxCell>
                <mxCell id="53" value="nom_type_message" style="text;strokeColor=#C73500;fillColor=#fa6800;align=left;verticalAlign=top;spacingLeft=4;spacingRight=4;overflow=hidden;rotatable=0;points=[[0,0.5],[1,0.5]];portConstraint=eastwest;fontColor=#000000;" vertex="1" parent="51">
                    <mxGeometry y="52" width="140" height="26" as="geometry"/>
                </mxCell>
                <mxCell id="55" value="contact" style="swimlane;fontStyle=0;childLayout=stackLayout;horizontal=1;startSize=26;fillColor=#60a917;horizontalStack=0;resizeParent=1;resizeParentMax=0;resizeLast=0;collapsible=1;marginBottom=0;rounded=1;fontColor=#ffffff;strokeColor=#2D7600;" vertex="1" parent="1">
                    <mxGeometry x="60" y="330" width="140" height="78" as="geometry"/>
                </mxCell>
                <mxCell id="56" value="pk_id_contact" style="text;strokeColor=#C73500;fillColor=#fa6800;align=left;verticalAlign=top;spacingLeft=4;spacingRight=4;overflow=hidden;rotatable=0;points=[[0,0.5],[1,0.5]];portConstraint=eastwest;fontColor=#000000;" vertex="1" parent="55">
                    <mxGeometry y="26" width="140" height="26" as="geometry"/>
                </mxCell>
                <mxCell id="57" value="fk_id_compte" style="text;strokeColor=#C73500;fillColor=#fa6800;align=left;verticalAlign=top;spacingLeft=4;spacingRight=4;overflow=hidden;rotatable=0;points=[[0,0.5],[1,0.5]];portConstraint=eastwest;fontColor=#000000;" vertex="1" parent="55">
                    <mxGeometry y="52" width="140" height="26" as="geometry"/>
                </mxCell>
                <mxCell id="61" value="autorisation" style="swimlane;fontStyle=0;childLayout=stackLayout;horizontal=1;startSize=26;fillColor=#60a917;horizontalStack=0;resizeParent=1;resizeParentMax=0;resizeLast=0;collapsible=1;marginBottom=0;rounded=1;fontColor=#ffffff;strokeColor=#2D7600;" vertex="1" parent="1">
                    <mxGeometry x="340" y="743" width="140" height="104" as="geometry"/>
                </mxCell>
                <mxCell id="62" value="pk_id_autorisation" style="text;strokeColor=#C73500;fillColor=#fa6800;align=left;verticalAlign=top;spacingLeft=4;spacingRight=4;overflow=hidden;rotatable=0;points=[[0,0.5],[1,0.5]];portConstraint=eastwest;fontColor=#000000;" vertex="1" parent="61">
                    <mxGeometry y="26" width="140" height="26" as="geometry"/>
                </mxCell>
                <mxCell id="63" value="fk_id_salon" style="text;strokeColor=#C73500;fillColor=#fa6800;align=left;verticalAlign=top;spacingLeft=4;spacingRight=4;overflow=hidden;rotatable=0;points=[[0,0.5],[1,0.5]];portConstraint=eastwest;fontColor=#000000;" vertex="1" parent="61">
                    <mxGeometry y="52" width="140" height="26" as="geometry"/>
                </mxCell>
                <mxCell id="64" value="fk_id_compte" style="text;strokeColor=#C73500;fillColor=#fa6800;align=left;verticalAlign=top;spacingLeft=4;spacingRight=4;overflow=hidden;rotatable=0;points=[[0,0.5],[1,0.5]];portConstraint=eastwest;fontColor=#000000;" vertex="1" parent="61">
                    <mxGeometry y="78" width="140" height="26" as="geometry"/>
                </mxCell>
                <mxCell id="66" value="type_autorisation" style="swimlane;fontStyle=0;childLayout=stackLayout;horizontal=1;startSize=26;fillColor=#60a917;horizontalStack=0;resizeParent=1;resizeParentMax=0;resizeLast=0;collapsible=1;marginBottom=0;rounded=1;fontColor=#ffffff;strokeColor=#2D7600;" vertex="1" parent="1">
                    <mxGeometry x="60" y="769" width="140" height="78" as="geometry"/>
                </mxCell>
                <mxCell id="67" value="pk_id_type_autorisation" style="text;strokeColor=#C73500;fillColor=#fa6800;align=left;verticalAlign=top;spacingLeft=4;spacingRight=4;overflow=hidden;rotatable=0;points=[[0,0.5],[1,0.5]];portConstraint=eastwest;fontColor=#000000;" vertex="1" parent="66">
                    <mxGeometry y="26" width="140" height="26" as="geometry"/>
                </mxCell>
                <mxCell id="68" value="nom_autorisation" style="text;strokeColor=#C73500;fillColor=#fa6800;align=left;verticalAlign=top;spacingLeft=4;spacingRight=4;overflow=hidden;rotatable=0;points=[[0,0.5],[1,0.5]];portConstraint=eastwest;fontColor=#000000;" vertex="1" parent="66">
                    <mxGeometry y="52" width="140" height="26" as="geometry"/>
                </mxCell>
                <mxCell id="70" style="edgeStyle=none;html=1;fontColor=#000000;entryX=0;entryY=0.5;entryDx=0;entryDy=0;" edge="1" parent="1" source="9" target="57">
                    <mxGeometry relative="1" as="geometry">
                        <mxPoint x="-30" y="395" as="targetPoint"/>
                        <Array as="points">
                            <mxPoint x="40" y="546"/>
                            <mxPoint x="40" y="395"/>
                        </Array>
                    </mxGeometry>
                </mxCell>
                <mxCell id="74" style="edgeStyle=none;html=1;fontColor=#000000;entryX=0;entryY=0.5;entryDx=0;entryDy=0;" edge="1" parent="1" source="56" target="73">
                    <mxGeometry relative="1" as="geometry">
                        <mxPoint x="10" y="673" as="targetPoint"/>
                        <Array as="points">
                            <mxPoint x="20" y="369"/>
                            <mxPoint x="20" y="676"/>
                        </Array>
                    </mxGeometry>
                </mxCell>
                <mxCell id="77" style="edgeStyle=none;html=1;fontColor=#000000;entryX=0;entryY=0.5;entryDx=0;entryDy=0;" edge="1" parent="1" source="9" target="64">
                    <mxGeometry relative="1" as="geometry">
                        <mxPoint x="330" y="546" as="targetPoint"/>
                        <Array as="points">
                            <mxPoint x="310" y="546"/>
                            <mxPoint x="310" y="834"/>
                        </Array>
                    </mxGeometry>
                </mxCell>
                <mxCell id="78" style="edgeStyle=none;html=1;fontColor=#000000;entryX=0;entryY=0.5;entryDx=0;entryDy=0;" edge="1" parent="1" source="36" target="31">
                    <mxGeometry relative="1" as="geometry">
                        <mxPoint x="10" y="989" as="targetPoint"/>
                        <Array as="points">
                            <mxPoint x="540" y="1000"/>
                            <mxPoint x="540" y="860"/>
                            <mxPoint x="600" y="860"/>
                        </Array>
                    </mxGeometry>
                </mxCell>
                <mxCell id="84" style="edgeStyle=none;html=1;entryX=0;entryY=0.5;entryDx=0;entryDy=0;fontColor=#000000;" edge="1" parent="1" target="64">
                    <mxGeometry relative="1" as="geometry">
                        <mxPoint x="200" y="810" as="sourcePoint"/>
                        <Array as="points">
                            <mxPoint x="240" y="810"/>
                            <mxPoint x="240" y="834"/>
                        </Array>
                    </mxGeometry>
                </mxCell>
                <mxCell id="85" style="edgeStyle=none;html=1;entryX=1;entryY=0.5;entryDx=0;entryDy=0;fontColor=#000000;" edge="1" parent="1" source="29" target="63">
                    <mxGeometry relative="1" as="geometry">
                        <Array as="points">
                            <mxPoint x="540" y="782"/>
                            <mxPoint x="540" y="808"/>
                        </Array>
                    </mxGeometry>
                </mxCell>
                <mxCell id="88" style="edgeStyle=none;html=1;fontColor=#000000;entryX=0;entryY=0.5;entryDx=0;entryDy=0;" edge="1" parent="1" source="52" target="54">
                    <mxGeometry relative="1" as="geometry">
                        <mxPoint x="570" y="369" as="targetPoint"/>
                        <Array as="points">
                            <mxPoint x="540" y="370"/>
                            <mxPoint x="540" y="421"/>
                        </Array>
                    </mxGeometry>
                </mxCell>
                <mxCell id="89" style="edgeStyle=none;html=1;fontColor=#000000;entryX=0;entryY=0.5;entryDx=0;entryDy=0;" edge="1" parent="1" source="9" target="20">
                    <mxGeometry relative="1" as="geometry">
                        <mxPoint x="520" y="450" as="targetPoint"/>
                        <Array as="points">
                            <mxPoint x="540" y="546"/>
                            <mxPoint x="540" y="447"/>
                        </Array>
                    </mxGeometry>
                </mxCell>
                <mxCell id="92" style="edgeStyle=none;html=1;fontColor=#000000;entryX=1;entryY=0.5;entryDx=0;entryDy=0;" edge="1" parent="1" source="29" target="91">
                    <mxGeometry relative="1" as="geometry">
                        <mxPoint x="530" y="700" as="targetPoint"/>
                        <Array as="points">
                            <mxPoint x="540" y="782"/>
                            <mxPoint x="540" y="676"/>
                        </Array>
                    </mxGeometry>
                </mxCell>
                <mxCell id="93" style="edgeStyle=none;html=1;exitX=1;exitY=0.5;exitDx=0;exitDy=0;fontColor=#000000;entryX=1;entryY=0.5;entryDx=0;entryDy=0;" edge="1" parent="1" source="62" target="90">
                    <mxGeometry relative="1" as="geometry">
                        <mxPoint x="510" y="690" as="targetPoint"/>
                        <Array as="points">
                            <mxPoint x="510" y="782"/>
                            <mxPoint x="510" y="702"/>
                        </Array>
                    </mxGeometry>
                </mxCell>
            </root>
        </mxGraphModel>
    </diagram>
</mxfile>